<?xml version="1.0" standalone="no"?>
<!DOCTYPE svg PUBLIC "-//W3C//DTD SVG 20010904//EN"
 "http://www.w3.org/TR/2001/REC-SVG-20010904/DTD/svg10.dtd">
<svg version="1.0" xmlns="http://www.w3.org/2000/svg"
 width="2000.000000pt" height="2000.000000pt" viewBox="0 0 2000.000000 2000.000000"
 preserveAspectRatio="xMidYMid meet">
<metadata>
Created by potrace 1.14, written by Peter Selinger 2001-2017
</metadata>
<g transform="translate(0.000000,2000.000000) scale(0.100000,-0.100000)"
fill="#000000" stroke="none">
<path d="M5414 14598 l0 -888 3264 0 3263 0 -108 -132 c-59 -73 -143 -176
-186 -228 -96 -116 -93 -111 -197 -240 -46 -58 -87 -107 -90 -110 -3 -3 -23
-27 -45 -55 -50 -62 -72 -89 -111 -134 -16 -20 -59 -72 -94 -116 -35 -44 -67
-82 -70 -85 -3 -3 -17 -21 -32 -40 -14 -19 -34 -44 -44 -55 -11 -11 -37 -43
-59 -70 -62 -77 -69 -86 -80 -99 -10 -11 -124 -151 -155 -190 -8 -11 -29 -35
-46 -55 -16 -20 -82 -99 -145 -176 -63 -77 -122 -149 -131 -160 -9 -11 -103
-126 -208 -255 -105 -129 -208 -254 -228 -279 -41 -50 -145 -175 -170 -206 -9
-11 -35 -43 -57 -70 -21 -28 -42 -52 -45 -55 -3 -3 -24 -27 -45 -55 -22 -27
-42 -52 -45 -55 -3 -3 -23 -27 -45 -55 -21 -27 -42 -52 -45 -55 -3 -3 -64 -77
-135 -165 -71 -88 -134 -165 -140 -171 -13 -15 -67 -80 -150 -184 -38 -47 -82
-101 -99 -121 -44 -51 -62 -74 -135 -164 -35 -44 -67 -82 -70 -85 -3 -3 -33
-39 -66 -80 -32 -41 -64 -80 -70 -86 -5 -6 -23 -28 -40 -49 -16 -21 -35 -43
-40 -49 -6 -6 -30 -36 -55 -66 -25 -30 -49 -60 -55 -66 -5 -6 -21 -26 -35 -44
-14 -18 -30 -38 -35 -44 -6 -6 -28 -33 -50 -61 -22 -27 -42 -52 -45 -55 -3 -3
-24 -27 -45 -55 -22 -27 -42 -52 -45 -55 -3 -3 -35 -41 -70 -85 -35 -44 -67
-82 -70 -85 -3 -3 -23 -27 -45 -55 -40 -50 -72 -88 -90 -109 -5 -6 -28 -34
-50 -61 -21 -28 -42 -52 -45 -55 -3 -3 -33 -39 -65 -80 -33 -41 -64 -80 -70
-86 -5 -6 -26 -30 -45 -54 -19 -24 -80 -98 -135 -165 -55 -67 -113 -138 -130
-159 -46 -58 -77 -95 -115 -141 -19 -23 -70 -84 -112 -136 -178 -219 -373
-456 -397 -485 -43 -50 -64 -76 -106 -129 -22 -27 -53 -66 -70 -85 -16 -20
-46 -55 -65 -80 -19 -24 -60 -73 -90 -110 -30 -37 -71 -86 -90 -110 -19 -24
-60 -73 -90 -110 -30 -37 -71 -86 -90 -110 -19 -24 -47 -58 -61 -75 -15 -16
-80 -96 -145 -176 -127 -156 -168 -206 -207 -254 -14 -16 -109 -132 -210 -256
l-186 -227 0 -701 0 -701 4812 2 4812 3 0 882 c0 583 -3 884 -10 886 -5 1
-1546 2 -3422 2 -1877 -1 -3413 2 -3413 5 0 3 10 16 23 30 19 22 103 123 140
170 28 35 102 125 107 130 3 3 24 28 45 55 22 28 42 52 45 55 3 3 24 27 45 55
47 59 76 94 90 109 6 6 17 20 25 32 8 12 34 43 56 70 50 59 185 224 234 284
19 24 47 58 61 75 14 16 33 39 42 50 9 11 62 77 119 146 57 69 119 145 138
170 19 24 49 59 66 79 27 32 407 495 597 729 43 53 95 116 115 141 76 91 148
179 177 215 17 21 35 43 40 49 6 6 29 34 50 61 52 66 218 269 225 275 3 3 35
41 70 85 36 44 72 88 80 99 8 10 20 23 25 30 6 6 73 88 149 181 76 94 148 181
160 195 11 14 48 59 81 100 82 102 95 118 131 159 16 20 59 72 94 116 35 44
67 82 70 85 3 3 24 28 45 55 22 28 42 52 45 55 3 3 34 41 70 85 35 44 67 82
70 85 3 3 32 39 65 80 32 41 66 82 75 91 8 9 26 31 40 49 14 18 52 65 85 105
33 39 76 91 95 115 31 38 120 147 168 205 10 11 42 51 72 88 30 37 102 125
160 196 58 70 121 147 140 171 19 24 60 73 90 110 30 36 71 86 90 110 19 24
60 73 90 110 30 37 71 86 90 110 19 24 40 48 45 54 11 12 217 263 275 336 19
24 69 85 110 134 41 50 93 114 115 141 21 28 42 52 45 55 3 3 44 52 90 110 46
58 87 107 90 110 3 3 46 55 95 115 49 61 91 112 94 115 3 3 24 28 46 55 21 28
42 52 45 55 3 3 64 77 135 165 71 88 132 162 135 165 3 3 23 28 45 55 21 28
42 52 45 55 3 3 33 39 65 80 33 41 62 77 65 80 3 3 55 66 115 140 60 74 112
137 115 140 3 3 21 25 40 50 l35 44 0 694 c0 447 -3 696 -10 700 -5 3 -2098 6
-4650 7 l-4641 0 0 -887z"/>
</g>
</svg>
